<svg id="visual" viewBox="0 0 900 300" width="900" height="300" xmlns="http://www.w3.org/2000/svg" xmlns:xlink="http://www.w3.org/1999/xlink" version="1.1"><rect x="0" y="0" width="900" height="300" fill="#001220"></rect><defs><linearGradient id="grad1_0" x1="66.7%" y1="0%" x2="100%" y2="100%"><stop offset="-10%" stop-color="#d83f4d" stop-opacity="1"></stop><stop offset="110%" stop-color="#d83f4d" stop-opacity="1"></stop></linearGradient></defs><defs><linearGradient id="grad1_1" x1="66.7%" y1="0%" x2="100%" y2="100%"><stop offset="-10%" stop-color="#d83f4d" stop-opacity="1"></stop><stop offset="110%" stop-color="#8c2e69" stop-opacity="1"></stop></linearGradient></defs><defs><linearGradient id="grad1_2" x1="66.7%" y1="0%" x2="100%" y2="100%"><stop offset="-10%" stop-color="#342955" stop-opacity="1"></stop><stop offset="110%" stop-color="#8c2e69" stop-opacity="1"></stop></linearGradient></defs><defs><linearGradient id="grad1_3" x1="66.7%" y1="0%" x2="100%" y2="100%"><stop offset="-10%" stop-color="#342955" stop-opacity="1"></stop><stop offset="110%" stop-color="#001220" stop-opacity="1"></stop></linearGradient></defs><defs><linearGradient id="grad2_0" x1="0%" y1="0%" x2="33.3%" y2="100%"><stop offset="-10%" stop-color="#d83f4d" stop-opacity="1"></stop><stop offset="110%" stop-color="#d83f4d" stop-opacity="1"></stop></linearGradient></defs><defs><linearGradient id="grad2_1" x1="0%" y1="0%" x2="33.3%" y2="100%"><stop offset="-10%" stop-color="#8c2e69" stop-opacity="1"></stop><stop offset="110%" stop-color="#d83f4d" stop-opacity="1"></stop></linearGradient></defs><defs><linearGradient id="grad2_2" x1="0%" y1="0%" x2="33.3%" y2="100%"><stop offset="-10%" stop-color="#8c2e69" stop-opacity="1"></stop><stop offset="110%" stop-color="#342955" stop-opacity="1"></stop></linearGradient></defs><defs><linearGradient id="grad2_3" x1="0%" y1="0%" x2="33.3%" y2="100%"><stop offset="-10%" stop-color="#001220" stop-opacity="1"></stop><stop offset="110%" stop-color="#342955" stop-opacity="1"></stop></linearGradient></defs><g transform="translate(900, 0)"><path d="M0 270C-39.2 270.5 -78.4 271.1 -103.3 249.4C-128.2 227.8 -138.8 184 -154.9 154.9C-170.9 125.7 -192.4 111.4 -212.5 88C-232.6 64.7 -251.3 32.3 -270 0L0 0Z" fill="#12203c"></path><path d="M0 202.5C-29.4 202.9 -58.8 203.3 -77.5 187.1C-96.2 170.9 -104.1 138 -116.1 116.1C-128.2 94.3 -144.3 83.5 -159.4 66C-174.4 48.5 -188.5 24.2 -202.5 0L0 0Z" fill="#5f2e65"></path><path d="M0 135C-19.6 135.3 -39.2 135.5 -51.7 124.7C-64.1 113.9 -69.4 92 -77.4 77.4C-85.4 62.9 -96.2 55.7 -106.2 44C-116.3 32.3 -125.6 16.2 -135 0L0 0Z" fill="#b73060"></path><path d="M0 67.5C-9.8 67.6 -19.6 67.8 -25.8 62.4C-32.1 57 -34.7 46 -38.7 38.7C-42.7 31.4 -48.1 27.8 -53.1 22C-58.1 16.2 -62.8 8.1 -67.5 0L0 0Z" fill="#d83f4d"></path></g><g transform="translate(0, 300)"><path d="M0 -270C29.4 -247.5 58.8 -225 86.9 -209.7C115 -194.5 141.7 -186.5 171.1 -171.1C200.5 -155.8 232.5 -133.1 249.4 -103.3C266.4 -73.6 268.2 -36.8 270 0L0 0Z" fill="#12203c"></path><path d="M0 -202.5C22 -185.6 44.1 -168.7 65.2 -157.3C86.2 -145.8 106.3 -139.9 128.3 -128.3C150.4 -116.8 174.4 -99.8 187.1 -77.5C199.8 -55.2 201.1 -27.6 202.5 0L0 0Z" fill="#5f2e65"></path><path d="M0 -135C14.7 -123.7 29.4 -112.5 43.4 -104.9C57.5 -97.2 70.9 -93.2 85.6 -85.6C100.3 -77.9 116.3 -66.5 124.7 -51.7C133.2 -36.8 134.1 -18.4 135 0L0 0Z" fill="#b73060"></path><path d="M0 -67.5C7.3 -61.9 14.7 -56.2 21.7 -52.4C28.7 -48.6 35.4 -46.6 42.8 -42.8C50.1 -38.9 58.1 -33.3 62.4 -25.8C66.6 -18.4 67 -9.2 67.5 0L0 0Z" fill="#d83f4d"></path></g></svg>