<svg height="600" viewBox="0 0 900 600" width="900" xmlns="http://www.w3.org/2000/svg"><path d="m0 440 25-6c25-6 75-18 125-11.5s100 31.5 150 34.3c50 2.9 100-16.5 150-18.3s100 13.8 150 11 100-24.2 150-45.8c50-21.7 100-43.7 125-54.7l25-11v263h-25c-25 0-75 0-125 0s-100 0-150 0-100 0-150 0-100 0-150 0-100 0-150 0-100 0-125 0h-25z" fill="#fa7268"/><path d="m0 428 25 13.7c25 13.6 75 41 125 41.8s100-24.8 150-40.3 100-20.9 150-14.4 100 24.9 150 29.4 100-4.9 150-2.4 100 16.9 125 24l25 7.2v114h-25c-25 0-75 0-125 0s-100 0-150 0-100 0-150 0-100 0-150 0-100 0-150 0-100 0-125 0h-25z" fill="#e34c67"/><path d="m0 500 25 3.8c25 3.9 75 11.5 125 17.5s100 10.4 150 15.2 100 10.2 150 3.7 100-24.9 150-25.7 100 15.8 150 11.3 100-30.1 125-43l25-12.8v131h-25c-25 0-75 0-125 0s-100 0-150 0-100 0-150 0-100 0-150 0-100 0-150 0-100 0-125 0h-25z" fill="#c62368"/></svg>